<?xml version="1.0" encoding="UTF-8"?>
<svg width="44.322mm" height="93.545mm" version="1.1" viewBox="0 0 44.322 93.545" xmlns="http://www.w3.org/2000/svg" xmlns:cc="http://creativecommons.org/ns#" xmlns:dc="http://purl.org/dc/elements/1.1/" xmlns:rdf="http://www.w3.org/1999/02/22-rdf-syntax-ns#">
 <metadata>
  <rdf:RDF>
   <cc:Work rdf:about="">
    <dc:format>image/svg+xml</dc:format>
    <dc:type rdf:resource="http://purl.org/dc/dcmitype/StillImage"/>
    <dc:title/>
   </cc:Work>
  </rdf:RDF>
 </metadata>
 <g transform="translate(-121.99 -9.0714)">
  <path d="m166.31 102.62-42.918 1.9e-4 42.918-93.545z" fill="#ffe700"/>
  <g transform="rotate(-90)" aria-label="The Open XLIFF I18N Content Editor">
   <path d="m-100.78 162.54v2.6839h0.40217v-2.6839h1.0075v-0.33866h-2.4172v0.33866z"/>
   <path d="m-99.096 162.2v3.0226h0.35983v-1.2361q0-0.14816 0.0381-0.27093 0.04233-0.127 0.12277-0.22013 0.08043-0.0931 0.19897-0.14394 0.12277-0.0508 0.28787-0.0508 0.20743 0 0.32597 0.11854 0.11853 0.11853 0.11853 0.32173v1.4817h0.35983v-1.4393q0-0.1778-0.0381-0.32173-0.03387-0.14817-0.12277-0.254-0.0889-0.10583-0.23283-0.1651-0.14393-0.0593-0.35983-0.0593-0.09737 0-0.2032 0.0212-0.1016 0.0212-0.19897 0.0677-0.09313 0.0423-0.16933 0.1143-0.0762 0.0677-0.11853 0.16934h-0.0085v-1.1557z"/>
   <path d="m-95.22 163.92h-1.2573q0.0085-0.127 0.05503-0.23707 0.04657-0.1143 0.127-0.19896 0.08043-0.0847 0.1905-0.13124 0.1143-0.0508 0.254-0.0508 0.13547 0 0.24553 0.0508 0.1143 0.0466 0.19473 0.13124 0.08467 0.0804 0.13123 0.19473 0.0508 0.1143 0.05927 0.2413zm0.34713 0.6096h-0.3556q-0.04657 0.2159-0.19473 0.32173-0.14393 0.10584-0.37253 0.10584-0.1778 0-0.30903-0.0593t-0.2159-0.15663q-0.08467-0.1016-0.12277-0.2286-0.0381-0.13124-0.03387-0.27517h1.6383q0.0085-0.19897-0.0381-0.4191-0.04233-0.22013-0.16087-0.4064-0.1143-0.18627-0.30903-0.3048-0.1905-0.12277-0.4826-0.12277-0.22437 0-0.41487 0.0847-0.18627 0.0847-0.32597 0.23707-0.13547 0.1524-0.21167 0.35983t-0.0762 0.4572q0.0085 0.24977 0.07197 0.46143 0.06773 0.21167 0.19897 0.36407 0.13123 0.1524 0.32173 0.23707 0.19473 0.0847 0.4572 0.0847 0.37253 0 0.61807-0.18626 0.24553-0.18627 0.3175-0.55457z"/>
   <path d="m-93 163.71q0-0.2286 0.05927-0.44874 0.05927-0.22436 0.18627-0.40216 0.127-0.1778 0.32597-0.28364 0.19897-0.11006 0.47413-0.11006 0.27517 0 0.47413 0.11006 0.19897 0.10584 0.32597 0.28364 0.127 0.1778 0.18627 0.40216 0.05927 0.22014 0.05927 0.44874t-0.05927 0.45296q-0.05927 0.22014-0.18627 0.39794-0.127 0.1778-0.32597 0.28786-0.19897 0.10584-0.47413 0.10584-0.27517 0-0.47413-0.10584-0.19897-0.11006-0.32597-0.28786t-0.18627-0.39794q-0.05927-0.22436-0.05927-0.45296zm-0.40217 0q0 0.30903 0.0889 0.5969 0.09313 0.28363 0.27517 0.50376 0.18203 0.22014 0.45297 0.35137 0.27093 0.127 0.63077 0.127t0.63077-0.127q0.27093-0.13123 0.45297-0.35137 0.18203-0.22013 0.27093-0.50376 0.09313-0.28787 0.09313-0.5969 0-0.30904-0.09313-0.59267-0.0889-0.28787-0.27093-0.508t-0.45297-0.35137q-0.27093-0.13123-0.63077-0.13123t-0.63077 0.13123q-0.27093 0.13124-0.45297 0.35137t-0.27517 0.508q-0.0889 0.28363-0.0889 0.59267z"/>
   <path d="m-90.063 163.03v3.0226h0.35983v-1.1261h0.0085q0.05927 0.0974 0.14393 0.1651 0.0889 0.0635 0.18627 0.1016 0.09737 0.0381 0.19473 0.055 0.1016 0.0169 0.18203 0.0169 0.24977 0 0.43603-0.0889 0.1905-0.0889 0.31327-0.2413 0.127-0.15663 0.18627-0.36406 0.0635-0.20744 0.0635-0.44027t-0.0635-0.44027q-0.0635-0.20743-0.1905-0.36406-0.12277-0.16087-0.31327-0.254-0.18627-0.0931-0.44027-0.0931-0.2286 0-0.4191 0.0847-0.1905 0.0804-0.2794 0.26247h-0.0085v-0.29634zm1.6933 1.0753q0 0.16087-0.03387 0.31327t-0.11007 0.27093q-0.0762 0.11853-0.2032 0.1905-0.12277 0.072-0.30903 0.072t-0.3175-0.0677q-0.13123-0.072-0.2159-0.18626-0.08043-0.1143-0.11853-0.26247-0.0381-0.1524-0.0381-0.31327 0-0.1524 0.03387-0.30056 0.0381-0.14817 0.11853-0.26247 0.08043-0.11853 0.20743-0.1905 0.127-0.072 0.30903-0.072 0.17357 0 0.30057 0.0677 0.13123 0.0677 0.21167 0.18203 0.08467 0.1143 0.12277 0.26247 0.04233 0.14393 0.04233 0.29633z"/>
   <path d="m-86.043 163.92h-1.2573q0.0085-0.127 0.05503-0.23707 0.04657-0.1143 0.127-0.19896 0.08043-0.0847 0.1905-0.13124 0.1143-0.0508 0.254-0.0508 0.13547 0 0.24553 0.0508 0.1143 0.0466 0.19473 0.13124 0.08467 0.0804 0.13123 0.19473 0.0508 0.1143 0.05927 0.2413zm0.34713 0.6096h-0.3556q-0.04657 0.2159-0.19473 0.32173-0.14393 0.10584-0.37253 0.10584-0.1778 0-0.30903-0.0593t-0.2159-0.15663q-0.08467-0.1016-0.12277-0.2286-0.0381-0.13124-0.03387-0.27517h1.6383q0.0085-0.19897-0.0381-0.4191-0.04233-0.22013-0.16087-0.4064-0.1143-0.18627-0.30903-0.3048-0.1905-0.12277-0.4826-0.12277-0.22437 0-0.41487 0.0847-0.18627 0.0847-0.32597 0.23707-0.13547 0.1524-0.21167 0.35983t-0.0762 0.4572q0.0085 0.24977 0.07197 0.46143 0.06773 0.21167 0.19897 0.36407 0.13123 0.1524 0.32173 0.23707 0.19473 0.0847 0.4572 0.0847 0.37253 0 0.61807-0.18626 0.24553-0.18627 0.3175-0.55457z"/>
   <path d="m-85.289 163.03v2.1886h0.35983v-1.2361q0-0.14816 0.0381-0.27093 0.04233-0.127 0.12277-0.22013 0.08043-0.0931 0.19897-0.14394 0.12277-0.0508 0.28787-0.0508 0.20743 0 0.32597 0.11854 0.11853 0.11853 0.11853 0.32173v1.4817h0.35983v-1.4393q0-0.1778-0.0381-0.32173-0.03387-0.14817-0.12277-0.254-0.0889-0.10583-0.23283-0.1651-0.14393-0.0593-0.35983-0.0593-0.48683 0-0.7112 0.39794h-0.0085v-0.34714z"/>
   <path d="m-80.979 163.67-1.0499 1.5536h0.44873l0.8382-1.2488 0.8128 1.2488h0.49107l-1.0626-1.5536 0.99907-1.469h-0.44873l-0.7874 1.1811-0.75353-1.1811h-0.4826z"/>
   <path d="m-79.111 162.2v3.0226h2.0024v-0.33867h-1.6002v-2.6839z"/>
   <path d="m-76.737 162.2v3.0226h0.40217v-3.0226z"/>
   <path d="m-75.655 162.2v3.0226h0.40217v-1.3843h1.3885v-0.33867h-1.3885v-0.96097h1.5833v-0.33866z"/>
   <path d="m-73.224 162.2v3.0226h0.40217v-1.3843h1.3885v-0.33867h-1.3885v-0.96097h1.5833v-0.33866z"/>
   <path d="m-69.602 162.2v3.0226h0.40217v-3.0226z"/>
   <path d="m-67.342 165.22v-3.0014h-0.27517q-0.02963 0.16934-0.11007 0.2794-0.08043 0.11007-0.19897 0.17357-0.1143 0.0635-0.25823 0.0889-0.14393 0.0212-0.29633 0.0212v0.28786h0.77893v2.1505z"/>
   <path d="m-65.837 163q0-0.1143 0.04233-0.19897 0.04233-0.0847 0.11007-0.14393 0.07197-0.0593 0.16933-0.0889 0.09737-0.0296 0.2032-0.0296 0.22013 0 0.35983 0.11854 0.14393 0.1143 0.14393 0.3429t-0.1397 0.3556-0.3556 0.127q-0.11007 0-0.20743-0.0296-0.09737-0.0296-0.16933-0.0889-0.07197-0.0593-0.1143-0.14816-0.04233-0.0931-0.04233-0.2159zm-0.381-0.0127q0 0.2032 0.1143 0.37676 0.1143 0.16934 0.3048 0.24554-0.254 0.0889-0.38947 0.28786-0.13547 0.19474-0.13547 0.46144 0 0.2286 0.0762 0.40216 0.08043 0.16934 0.2159 0.28364 0.1397 0.1143 0.32597 0.16933 0.18627 0.055 0.40217 0.055 0.20743 0 0.38947-0.0593t0.31327-0.17357q0.13547-0.11853 0.21167-0.28787 0.08043-0.16933 0.08043-0.38946 0-0.2794-0.13123-0.4699-0.13123-0.19474-0.40217-0.2794 0.1905-0.0847 0.30057-0.24977 0.1143-0.16933 0.1143-0.37253 0-0.14394-0.0508-0.2794-0.0508-0.1397-0.16087-0.24554-0.10583-0.11006-0.2794-0.17356-0.17357-0.0677-0.4191-0.0677-0.17357 0-0.33443 0.0508-0.15663 0.0508-0.2794 0.14817-0.12277 0.0974-0.19473 0.2413-0.07197 0.1397-0.07197 0.32597zm0.27517 1.3885q0-0.13123 0.04657-0.23707 0.0508-0.10583 0.13547-0.18203 0.0889-0.0762 0.2032-0.1143 0.11853-0.0423 0.24977-0.0423 0.127 0 0.23707 0.0466 0.1143 0.0423 0.19897 0.11854 0.08467 0.0762 0.13123 0.18203 0.0508 0.1016 0.0508 0.22437 0 0.127-0.04657 0.23283-0.04233 0.10583-0.127 0.18627-0.08043 0.0762-0.19473 0.12276-0.11007 0.0423-0.24553 0.0423-0.2794 0-0.46143-0.1524-0.1778-0.15664-0.1778-0.42757z"/>
   <path d="m-63.811 162.2v3.0226h0.381v-2.4257h0.0085l1.579 2.4257h0.44027v-3.0226h-0.381v2.4511h-0.0085l-1.5917-2.4511z"/>
   <path d="m-57.448 163.11h0.40217q-0.03387-0.2413-0.14393-0.42333-0.11007-0.18627-0.27517-0.30903-0.1651-0.12277-0.37677-0.18627-0.21167-0.0635-0.44873-0.0635-0.34713 0-0.61807 0.127-0.2667 0.12277-0.44873 0.33867-0.1778 0.2159-0.27093 0.508-0.09313 0.28786-0.09313 0.61806t0.08467 0.61807q0.0889 0.28787 0.26247 0.49953 0.17357 0.21167 0.43603 0.33444 0.26247 0.11853 0.61383 0.11853 0.57997 0 0.9144-0.3175t0.3937-0.889h-0.40217q-0.0127 0.18627-0.0762 0.34713-0.0635 0.16087-0.1778 0.2794-0.11007 0.1143-0.2667 0.18204-0.1524 0.0635-0.35137 0.0635-0.27093 0-0.46567-0.1016-0.19473-0.1016-0.32173-0.27094-0.12277-0.17356-0.18203-0.40216-0.05927-0.23284-0.05927-0.49107 0-0.23707 0.05927-0.4572t0.18203-0.38947q0.127-0.17356 0.3175-0.27516 0.19473-0.1016 0.46567-0.1016 0.3175 0 0.5461 0.16086 0.23283 0.16087 0.30057 0.4826z"/>
   <path d="m-56.311 164.13q0-0.19897 0.0508-0.35137 0.05503-0.15663 0.14817-0.26247 0.09313-0.10583 0.2159-0.16086 0.127-0.055 0.2667-0.055t0.26247 0.055q0.127 0.055 0.22013 0.16086 0.09313 0.10584 0.14393 0.26247 0.05503 0.1524 0.05503 0.35137 0 0.19896-0.05503 0.3556-0.0508 0.1524-0.14393 0.25823-0.09313 0.1016-0.22013 0.15663-0.12277 0.055-0.26247 0.055t-0.2667-0.055q-0.12277-0.055-0.2159-0.15663-0.09313-0.10583-0.14817-0.25823-0.0508-0.15664-0.0508-0.3556zm-0.381 0q0 0.2413 0.06773 0.44873t0.2032 0.36407q0.13547 0.1524 0.33443 0.2413 0.19897 0.0847 0.4572 0.0847 0.26247 0 0.4572-0.0847 0.19897-0.0889 0.33443-0.2413 0.13547-0.15664 0.2032-0.36407 0.06773-0.20743 0.06773-0.44873t-0.06773-0.44874q-0.06773-0.21166-0.2032-0.36406-0.13547-0.15664-0.33443-0.24554-0.19473-0.0889-0.4572-0.0889-0.25823 0-0.4572 0.0889-0.19897 0.0889-0.33443 0.24554-0.13547 0.1524-0.2032 0.36406-0.06773 0.20744-0.06773 0.44874z"/>
   <path d="m-54.142 163.03v2.1886h0.35983v-1.2361q0-0.14816 0.0381-0.27093 0.04233-0.127 0.12277-0.22013 0.08043-0.0931 0.19897-0.14394 0.12277-0.0508 0.28787-0.0508 0.20743 0 0.32597 0.11854 0.11853 0.11853 0.11853 0.32173v1.4817h0.35983v-1.4393q0-0.1778-0.0381-0.32173-0.03387-0.14817-0.12277-0.254-0.0889-0.10583-0.23283-0.1651-0.14393-0.0593-0.35983-0.0593-0.48683 0-0.7112 0.39794h-0.0085v-0.34714z"/>
   <path d="m-51.286 163.03v-0.65616h-0.35983v0.65616h-0.37253v0.3175h0.37253v1.3928q0 0.1524 0.02963 0.24553 0.02963 0.0931 0.0889 0.14394 0.0635 0.0508 0.16087 0.072 0.1016 0.0169 0.2413 0.0169h0.27517v-0.3175h-0.1651q-0.08467 0-0.1397-4e-3 -0.0508-8e-3 -0.08043-0.0296-0.02963-0.0212-0.04233-0.0593-0.0085-0.0381-0.0085-0.1016v-1.3589h0.43603v-0.3175z"/>
   <path d="m-48.935 163.92h-1.2573q0.0085-0.127 0.05503-0.23707 0.04657-0.1143 0.127-0.19896 0.08043-0.0847 0.1905-0.13124 0.1143-0.0508 0.254-0.0508 0.13547 0 0.24553 0.0508 0.1143 0.0466 0.19473 0.13124 0.08467 0.0804 0.13123 0.19473 0.0508 0.1143 0.05927 0.2413zm0.34713 0.6096h-0.3556q-0.04657 0.2159-0.19473 0.32173-0.14393 0.10584-0.37253 0.10584-0.1778 0-0.30903-0.0593-0.13123-0.0593-0.2159-0.15663-0.08467-0.1016-0.12277-0.2286-0.0381-0.13124-0.03387-0.27517h1.6383q0.0085-0.19897-0.0381-0.4191-0.04233-0.22013-0.16087-0.4064-0.1143-0.18627-0.30903-0.3048-0.1905-0.12277-0.4826-0.12277-0.22437 0-0.41487 0.0847-0.18627 0.0847-0.32597 0.23707-0.13547 0.1524-0.21167 0.35983t-0.0762 0.4572q0.0085 0.24977 0.07197 0.46143 0.06773 0.21167 0.19897 0.36407 0.13123 0.1524 0.32173 0.23707 0.19473 0.0847 0.4572 0.0847 0.37253 0 0.61807-0.18626 0.24553-0.18627 0.3175-0.55457z"/>
   <path d="m-48.181 163.03v2.1886h0.35983v-1.2361q0-0.14816 0.0381-0.27093 0.04233-0.127 0.12277-0.22013 0.08043-0.0931 0.19897-0.14394 0.12277-0.0508 0.28787-0.0508 0.20743 0 0.32597 0.11854 0.11853 0.11853 0.11853 0.32173v1.4817h0.35983v-1.4393q0-0.1778-0.0381-0.32173-0.03387-0.14817-0.12277-0.254-0.0889-0.10583-0.23283-0.1651-0.14393-0.0593-0.35983-0.0593-0.48683 0-0.7112 0.39794h-0.0085v-0.34714z"/>
   <path d="m-45.325 163.03v-0.65616h-0.35983v0.65616h-0.37253v0.3175h0.37253v1.3928q0 0.1524 0.02963 0.24553 0.02963 0.0931 0.0889 0.14394 0.0635 0.0508 0.16087 0.072 0.1016 0.0169 0.2413 0.0169h0.27517v-0.3175h-0.1651q-0.08467 0-0.1397-4e-3 -0.0508-8e-3 -0.08043-0.0296-0.02963-0.0212-0.04233-0.0593-0.0085-0.0381-0.0085-0.1016v-1.3589h0.43603v-0.3175z"/>
   <path d="m-43.26 162.2v3.0226h2.0997v-0.33867h-1.6976v-1.0456h1.5706v-0.33867h-1.5706v-0.96097h1.6849v-0.33866z"/>
   <path d="m-40.469 164.15q0-0.16087 0.03387-0.31327t0.11007-0.27093q0.0762-0.11853 0.2032-0.1905 0.127-0.072 0.30903-0.072 0.18627 0 0.3175 0.072 0.13123 0.0677 0.21167 0.18203 0.08467 0.1143 0.12277 0.2667 0.0381 0.14817 0.0381 0.30904 0 0.1524-0.0381 0.30056-0.03387 0.14817-0.1143 0.2667-0.08043 0.1143-0.20743 0.18627-0.127 0.072-0.30903 0.072-0.17357 0-0.3048-0.0677-0.127-0.0677-0.21167-0.18203-0.08043-0.1143-0.12277-0.25823-0.0381-0.14817-0.0381-0.30057zm1.6933 1.0753v-3.0226h-0.35983v1.1261h-0.0085q-0.05927-0.0974-0.14817-0.16086-0.08467-0.0677-0.18203-0.10584-0.09737-0.0423-0.19473-0.0593-0.09737-0.0169-0.18203-0.0169-0.24977 0-0.44027 0.0931-0.18627 0.0889-0.31327 0.24553-0.12277 0.1524-0.18627 0.35983-0.05927 0.20744-0.05927 0.44027t0.0635 0.44027q0.0635 0.20743 0.18627 0.36406 0.127 0.15664 0.31327 0.24977 0.1905 0.0931 0.4445 0.0931 0.2286 0 0.4191-0.0804 0.1905-0.0804 0.2794-0.26247h0.0085v0.29634z"/>
   <path d="m-37.837 162.64v-0.44026h-0.35983v0.44026zm-0.35983 0.3937v2.1886h0.35983v-2.1886z"/>
   <path d="m-36.775 163.03v-0.65616h-0.35983v0.65616h-0.37253v0.3175h0.37253v1.3928q0 0.1524 0.02963 0.24553 0.02963 0.0931 0.0889 0.14394 0.0635 0.0508 0.16087 0.072 0.1016 0.0169 0.2413 0.0169h0.27517v-0.3175h-0.1651q-0.08467 0-0.1397-4e-3 -0.0508-8e-3 -0.08043-0.0296-0.02963-0.0212-0.04233-0.0593-0.0085-0.0381-0.0085-0.1016v-1.3589h0.43603v-0.3175z"/>
   <path d="m-35.681 164.13q0-0.19897 0.0508-0.35137 0.05503-0.15663 0.14817-0.26247 0.09313-0.10583 0.2159-0.16086 0.127-0.055 0.2667-0.055t0.26247 0.055q0.127 0.055 0.22013 0.16086 0.09313 0.10584 0.14393 0.26247 0.05503 0.1524 0.05503 0.35137 0 0.19896-0.05503 0.3556-0.0508 0.1524-0.14393 0.25823-0.09313 0.1016-0.22013 0.15663-0.12277 0.055-0.26247 0.055t-0.2667-0.055q-0.12277-0.055-0.2159-0.15663-0.09313-0.10583-0.14817-0.25823-0.0508-0.15664-0.0508-0.3556zm-0.381 0q0 0.2413 0.06773 0.44873t0.2032 0.36407q0.13547 0.1524 0.33443 0.2413 0.19897 0.0847 0.4572 0.0847 0.26247 0 0.4572-0.0847 0.19897-0.0889 0.33443-0.2413 0.13547-0.15664 0.2032-0.36407 0.06773-0.20743 0.06773-0.44873t-0.06773-0.44874q-0.06773-0.21166-0.2032-0.36406-0.13547-0.15664-0.33443-0.24554-0.19473-0.0889-0.4572-0.0889-0.25823 0-0.4572 0.0889-0.19897 0.0889-0.33443 0.24554-0.13547 0.1524-0.2032 0.36406-0.06773 0.20744-0.06773 0.44874z"/>
   <path d="m-33.526 163.03v2.1886h0.35983v-0.97367q0-0.21167 0.04233-0.37253 0.04233-0.1651 0.13547-0.2794 0.09313-0.1143 0.24553-0.17357 0.1524-0.0593 0.3683-0.0593v-0.381q-0.2921-8e-3 -0.4826 0.11854-0.1905 0.127-0.32173 0.3937h-0.0085v-0.46144z"/>
  </g>
  <g stroke-width=".26458">
   <text x="323.86642" y="225.78603" font-family="'Helvetica Neue'" font-size="6.35px" style="line-height:1.25" xml:space="preserve"><tspan x="323.86642" y="225.78603" fill="#ffffff" font-size="6.35px" stroke-width=".26458">by</tspan></text>
   <text x="271.40576" y="233.5901" font-family="'Helvetica Neue'" font-size="10.583px" style="line-height:1.25" xml:space="preserve"><tspan x="271.40576" y="233.5901" fill="#ffffff" font-family="'Autograf PERSONAL USE ONLY'" font-size="11.289px" stroke-width=".26458">Silent Fred</tspan></text>
   <g aria-label="☣">
    <path d="m149.61 77.087q3.7455 0.27285 6.1516 2.927 2.4309 2.6541 2.4309 6.1764 0 0.76894-0.19844 2.034 0-3.4479-2.3068-5.8043-2.3068-2.3812-5.4322-2.3812-3.3982 0-5.5811 3.0014l-1.1658-0.66973q0.0992-0.39688 0.0992-0.59531 0-1.5875-1.6371-2.0836v-1.3395q2.8277-0.24805 4.5889-2.2076 1.7611-1.9596 1.7611-4.8369 0-4.5393-4.1424-6.9701 2.927 0.96738 4.6633 3.3734t1.7363 5.3082q0 2.1332-0.96738 4.068zm-8.632 2.6045q-1.6371 0.49609-1.6371 2.0836 0 0.24805 0.0992 0.5457-1.2154 0.66973-1.2154 0.71934-2.0836-3.0014-5.5314-3.0014-3.1254 0-5.4322 2.3812-2.3068 2.3564-2.3068 5.8043-0.19844-1.265-0.19844-2.034 0-3.4975 2.406-6.1268 2.4061-2.6541 6.1764-2.9766-0.96738-1.9348-0.96738-4.068 0-2.9021 1.7363-5.3082t4.6633-3.3734q-4.1424 2.4309-4.1424 6.9701 0 2.8773 1.7611 4.8369 1.7611 1.9596 4.5889 2.2076zm5.1594-4.9361-0.84336 1.265q-1.6619-1.1658-3.8199-1.1658t-3.8199 1.1658l-0.84336-1.265q2.0588-1.4139 4.6633-1.4139t4.6633 1.4139zm3.7207 6.4492q0.14883 2.5797-1.141 4.7873-1.265 2.2076-3.5223 3.3486l-0.66972-1.4139q3.7951-1.91 3.7951-6.5732zm-11.435 6.7221-0.76894 1.4139q-1.6867-0.84336-2.8029-2.2572-1.1162-1.4387-1.4883-2.7533-0.37207-1.3395-0.37207-3.1254l1.6371 0.14883q-0.0744 0.39688-0.0744 0.79375 0 1.7115 1.0666 3.3982t2.8029 2.3812zm16.718 5.0105q-2.5301 2.3316-6.0523 2.3316-4.8369 0-7.615-4.0928-2.7781 4.0928-7.615 4.0928-3.5223 0-6.0523-2.3316 2.1828 1.1162 3.8695 1.1162 3.2246 0 5.5066-2.0836 2.3068-2.0836 2.3068-4.7625 0-1.8604-0.76894-3.299l1.1906-0.66973q0.66973 0.66973 1.5627 0.66973 0.86816 0 1.5131-0.66973l1.1906 0.71934q-0.71934 1.4387-0.71934 3.2494 0 2.6789 2.282 4.7625 2.282 2.0836 5.5314 2.0836 1.6867 0 3.8695-1.1162z" stroke-width=".26458"/>
   </g>
   <text transform="rotate(-90)" x="-67.397682" y="331.70587" font-family="'Helvetica Neue'" font-size="4.2333px" style="line-height:1.25" xml:space="preserve"><tspan x="-67.397682" y="331.70587" fill="#ffffff" font-size="4.2333px" stroke-width=".26458">The Open XLIFF I18N Content Editor</tspan></text>
  </g>
 </g>
</svg>
